<svg width="1600" height="900" viewBox="0 0 1600 900" fill="none" xmlns="http://www.w3.org/2000/svg">
  <defs>
    <linearGradient id="bg" x1="0" y1="0" x2="1600" y2="900" gradientUnits="userSpaceOnUse">
      <stop offset="0" stop-color="#1A2847"/>
      <stop offset="0.6" stop-color="#2B3E63"/>
      <stop offset="1" stop-color="#141F38"/>
    </linearGradient>
    <radialGradient id="glow" cx="0" cy="0" r="1" gradientUnits="userSpaceOnUse" gradientTransform="translate(1180 620) rotate(-35) scale(680 680)">
      <stop stop-color="#39A84A" stop-opacity="0.45"/>
      <stop offset="1" stop-color="#39A84A" stop-opacity="0"/>
    </radialGradient>
  </defs>
  <rect width="1600" height="900" fill="url(#bg)"/>
  <rect width="1600" height="900" fill="url(#glow)"/>
  <g opacity="0.6">
    <rect x="180" y="170" width="1240" height="560" rx="28" fill="white" fill-opacity="0.06" stroke="white" stroke-opacity="0.14" stroke-width="2"/>
    <rect x="220" y="220" width="560" height="66" rx="18" fill="white" fill-opacity="0.08"/>
    <rect x="800" y="220" width="580" height="66" rx="18" fill="white" fill-opacity="0.06"/>
    <rect x="220" y="320" width="360" height="160" rx="22" fill="white" fill-opacity="0.07"/>
    <rect x="610" y="320" width="360" height="160" rx="22" fill="white" fill-opacity="0.07"/>
    <rect x="1000" y="320" width="380" height="160" rx="22" fill="white" fill-opacity="0.07"/>
    <rect x="220" y="510" width="360" height="160" rx="22" fill="white" fill-opacity="0.05"/>
    <rect x="610" y="510" width="360" height="160" rx="22" fill="white" fill-opacity="0.05"/>
    <rect x="1000" y="510" width="380" height="160" rx="22" fill="white" fill-opacity="0.05"/>
  </g>
  <g>
    <path d="M360 260H520" stroke="#39A84A" stroke-opacity="0.55" stroke-width="6" stroke-linecap="round"/>
    <circle cx="540" cy="260" r="10" fill="#39A84A"/>
    <path d="M1040 650H1280" stroke="#39A84A" stroke-opacity="0.45" stroke-width="6" stroke-linecap="round"/>
    <circle cx="1008" cy="650" r="10" fill="#39A84A"/>
  </g>
  <g>
    <text x="220" y="118" fill="white" fill-opacity="0.92" font-family="Inter, system-ui, -apple-system, Segoe UI, Arial" font-size="44" font-weight="700">E-commerce Platform</text>
    <text x="220" y="178" fill="white" fill-opacity="0.70" font-family="Inter, system-ui, -apple-system, Segoe UI, Arial" font-size="22">Product catalog • Payments • Conversion-focused UI</text>
  </g>
</svg>
