<svg width="1600" height="900" viewBox="0 0 1600 900" fill="none" xmlns="http://www.w3.org/2000/svg">
  <defs>
    <linearGradient id="bg" x1="0" y1="0" x2="1600" y2="900" gradientUnits="userSpaceOnUse">
      <stop offset="0" stop-color="#141F38"/>
      <stop offset="0.55" stop-color="#1A2847"/>
      <stop offset="1" stop-color="#2B3E63"/>
    </linearGradient>
    <radialGradient id="glow" cx="0" cy="0" r="1" gradientUnits="userSpaceOnUse" gradientTransform="translate(340 260) rotate(25) scale(620 620)">
      <stop stop-color="#39A84A" stop-opacity="0.50"/>
      <stop offset="1" stop-color="#39A84A" stop-opacity="0"/>
    </radialGradient>
  </defs>
  <rect width="1600" height="900" fill="url(#bg)"/>
  <rect width="1600" height="900" fill="url(#glow)"/>
  <g opacity="0.55">
    <path d="M0 120H1600" stroke="white" stroke-opacity="0.08" stroke-width="2"/>
    <path d="M0 240H1600" stroke="white" stroke-opacity="0.08" stroke-width="2"/>
    <path d="M0 360H1600" stroke="white" stroke-opacity="0.08" stroke-width="2"/>
    <path d="M0 480H1600" stroke="white" stroke-opacity="0.08" stroke-width="2"/>
    <path d="M0 600H1600" stroke="white" stroke-opacity="0.08" stroke-width="2"/>
    <path d="M0 720H1600" stroke="white" stroke-opacity="0.08" stroke-width="2"/>
  </g>
  <g>
    <rect x="520" y="150" width="560" height="600" rx="64" fill="white" fill-opacity="0.08" stroke="white" stroke-opacity="0.16" stroke-width="2"/>
    <rect x="570" y="220" width="460" height="80" rx="20" fill="white" fill-opacity="0.08"/>
    <rect x="570" y="330" width="300" height="44" rx="14" fill="white" fill-opacity="0.12"/>
    <rect x="570" y="392" width="400" height="26" rx="10" fill="white" fill-opacity="0.09"/>
    <rect x="570" y="432" width="360" height="26" rx="10" fill="white" fill-opacity="0.07"/>
    <rect x="570" y="520" width="200" height="54" rx="18" fill="#39A84A" fill-opacity="0.88"/>
    <rect x="790" y="520" width="240" height="54" rx="18" fill="white" fill-opacity="0.07" stroke="white" stroke-opacity="0.14"/>
    <circle cx="800" cy="698" r="20" fill="white" fill-opacity="0.10"/>
  </g>
  <g>
    <path d="M300 580C420 470 480 490 570 410C720 274 920 272 1030 338" stroke="#39A84A" stroke-opacity="0.55" stroke-width="6" stroke-linecap="round"/>
    <circle cx="570" cy="410" r="10" fill="#39A84A"/>
    <circle cx="1030" cy="338" r="10" fill="#39A84A"/>
  </g>
  <g>
    <text x="160" y="210" fill="white" fill-opacity="0.92" font-family="Inter, system-ui, -apple-system, Segoe UI, Arial" font-size="44" font-weight="700">Mobile Banking App</text>
    <text x="160" y="270" fill="white" fill-opacity="0.70" font-family="Inter, system-ui, -apple-system, Segoe UI, Arial" font-size="22">Secure flows • Fast UX • Clean mobile UI</text>
  </g>
</svg>
