<svg width="1600" height="900" viewBox="0 0 1600 900" fill="none" xmlns="http://www.w3.org/2000/svg">
  <defs>
    <linearGradient id="bg" x1="0" y1="0" x2="1600" y2="900" gradientUnits="userSpaceOnUse">
      <stop offset="0" stop-color="#141F38"/>
      <stop offset="0.55" stop-color="#2B3E63"/>
      <stop offset="1" stop-color="#1A2847"/>
    </linearGradient>
    <radialGradient id="glow" cx="0" cy="0" r="1" gradientUnits="userSpaceOnUse" gradientTransform="translate(1240 260) rotate(135) scale(640 640)">
      <stop stop-color="#39A84A" stop-opacity="0.38"/>
      <stop offset="1" stop-color="#39A84A" stop-opacity="0"/>
    </radialGradient>
  </defs>
  <rect width="1600" height="900" fill="url(#bg)"/>
  <rect width="1600" height="900" fill="url(#glow)"/>
  <g opacity="0.65">
    <rect x="200" y="170" width="1200" height="560" rx="28" fill="white" fill-opacity="0.06" stroke="white" stroke-opacity="0.14" stroke-width="2"/>
    <rect x="240" y="220" width="720" height="70" rx="18" fill="white" fill-opacity="0.08"/>
    <rect x="980" y="220" width="380" height="70" rx="18" fill="white" fill-opacity="0.06"/>
    <rect x="240" y="320" width="520" height="170" rx="22" fill="white" fill-opacity="0.06"/>
    <rect x="780" y="320" width="580" height="170" rx="22" fill="white" fill-opacity="0.05"/>
    <rect x="240" y="510" width="1120" height="200" rx="22" fill="white" fill-opacity="0.05"/>
    <rect x="280" y="552" width="360" height="44" rx="14" fill="white" fill-opacity="0.10"/>
    <rect x="280" y="610" width="520" height="28" rx="10" fill="white" fill-opacity="0.08"/>
    <rect x="280" y="650" width="460" height="28" rx="10" fill="white" fill-opacity="0.06"/>
  </g>
  <g>
    <path d="M980 380H1220" stroke="#39A84A" stroke-opacity="0.55" stroke-width="6" stroke-linecap="round"/>
    <circle cx="1240" cy="380" r="10" fill="#39A84A"/>
    <path d="M340 410H560" stroke="#39A84A" stroke-opacity="0.35" stroke-width="6" stroke-linecap="round"/>
    <circle cx="320" cy="410" r="10" fill="#39A84A"/>
  </g>
  <g>
    <text x="220" y="118" fill="white" fill-opacity="0.92" font-family="Inter, system-ui, -apple-system, Segoe UI, Arial" font-size="44" font-weight="700">Education Platform</text>
    <text x="220" y="178" fill="white" fill-opacity="0.70" font-family="Inter, system-ui, -apple-system, Segoe UI, Arial" font-size="22">Courses • Progress tracking • Clean dashboards</text>
  </g>
</svg>
